<svg xmlns="http://www.w3.org/2000/svg" width="1100" height="180" viewBox="0 0 1100 180" role="img" aria-labelledby="title desc">
<title id="title">Sushil Thapa GitHub achievements</title>
<desc id="desc">Static achievement cards for active development, secure building and continuous learning</desc>
<defs>
  <linearGradient id="g1" x1="0" y1="0" x2="1" y2="1"><stop stop-color="#00e5ff"/><stop offset="1" stop-color="#0369a1"/></linearGradient>
  <linearGradient id="g2" x1="0" y1="0" x2="1" y2="1"><stop stop-color="#8b5cf6"/><stop offset="1" stop-color="#4c1d95"/></linearGradient>
  <linearGradient id="g3" x1="0" y1="0" x2="1" y2="1"><stop stop-color="#00e676"/><stop offset="1" stop-color="#047857"/></linearGradient>
  <filter id="s"><feDropShadow dx="0" dy="8" stdDeviation="8" flood-opacity=".35"/></filter>
</defs>
<rect width="1100" height="180" rx="18" fill="#0d1117"/>
<g filter="url(#s)" font-family="Arial, Helvetica, sans-serif">
  <g transform="translate(35 25)">
    <rect width="320" height="130" rx="18" fill="#111827" stroke="#00e5ff"/>
    <circle cx="62" cy="65" r="38" fill="url(#g1)"/>
    <path d="M48 69 L60 81 L80 48" fill="none" stroke="#fff" stroke-width="8" stroke-linecap="round" stroke-linejoin="round"/>
    <text x="120" y="57" fill="#fff" font-size="22" font-weight="800">Active Builder</text>
    <text x="120" y="84" fill="#94a3b8" font-size="14">Shipping real projects</text>
  </g>
  <g transform="translate(390 25)">
    <rect width="320" height="130" rx="18" fill="#111827" stroke="#8b5cf6"/>
    <circle cx="62" cy="65" r="38" fill="url(#g2)"/>
    <path d="M62 39 L86 49 V66 C86 83 75 94 62 101 C49 94 38 83 38 66 V49 Z" fill="none" stroke="#fff" stroke-width="6"/>
    <text x="120" y="57" fill="#fff" font-size="22" font-weight="800">Secure Builder</text>
    <text x="120" y="84" fill="#94a3b8" font-size="14">Security-first development</text>
  </g>
  <g transform="translate(745 25)">
    <rect width="320" height="130" rx="18" fill="#111827" stroke="#00e676"/>
    <circle cx="62" cy="65" r="38" fill="url(#g3)"/>
    <path d="M41 55 L62 45 L83 55 L62 66 Z M48 63 V78 C57 85 67 85 76 78 V63" fill="none" stroke="#fff" stroke-width="5" stroke-linejoin="round"/>
    <text x="120" y="57" fill="#fff" font-size="22" font-weight="800">Always Learning</text>
    <text x="120" y="84" fill="#94a3b8" font-size="14">Backend and cybersecurity</text>
  </g>
</g>
</svg>
