<?xml version="1.0" encoding="UTF-8"?>
<svg xmlns="http://www.w3.org/2000/svg" width="420" height="280" viewBox="0 0 420 280" role="img" aria-label="Sushil Thapa hacker lanyard badge">
  <rect width="100%" height="100%" fill="#030612"/>
  <rect x="18" y="18" width="384" height="244" rx="20" fill="#07121d" stroke="#1b2b26" stroke-width="3"/>

  <!-- Simple straps -->
  <rect x="180" y="-20" width="18" height="80" rx="9" fill="#00c98a" transform="rotate(-8 189 20)"/>
  <rect x="222" y="-20" width="18" height="80" rx="9" fill="#7a35ff" transform="rotate(8 231 20)"/>

  <!-- Avatar circle (vector) -->
  <circle cx="210" cy="95" r="60" fill="#001814" stroke="#00ff9f" stroke-width="4" />
  <circle cx="210" cy="95" r="48" fill="#08141a" />

  <!-- Simple mask face (vector) -->
  <ellipse cx="210" cy="96" rx="22" ry="28" fill="#ffffff" />
  <ellipse cx="200" cy="92" rx="4" ry="5" fill="#000" />
  <ellipse cx="220" cy="92" rx="4" ry="5" fill="#000" />
  <path d="M200 105 C208 112 212 112 220 105" stroke="#000" stroke-width="2" fill="none" stroke-linecap="round" />

  <!-- Text -->
  <text x="210" y="160" text-anchor="middle" fill="#ffffff" font-family="Arial, Helvetica, sans-serif" font-size="20" font-weight="700">Sushil Thapa</text>
  <text x="210" y="180" text-anchor="middle" fill="#00eaff" font-family="Consolas, monospace" font-size="11" font-weight="700">BACKEND DEVELOPER</text>
  <text x="210" y="196" text-anchor="middle" fill="#a98bff" font-family="Consolas, monospace" font-size="10">ETHICAL HACKING • CYBERSECURITY</text>

  <!-- Bottom ribbon -->
  <rect x="36" y="210" width="348" height="36" rx="8" fill="#002815" stroke="#00ff9f" stroke-opacity="0.45" />
  <text x="210" y="233" text-anchor="middle" fill="#64ffac" font-family="monospace" font-size="12">Breaking &amp; building securely</text>
</svg>
